PathFileType	4	(X/Y/Z)	/Users/itak/Documents/Research/Walk-IL/dataset/trc/00458_00167.trc
DataRate	CameraRate	NumFrames	NumMarkers	Units	OrigDataRate	OrigDataStartFrame	OrigNumFrames
100.000000	100.000000	4	53	mm	100.000000	64	517
Frame#	Time	RPSI			LPSI			L3			STRN			T10			C7			CLAV			RBAK			LBAK			LSHO			LUPA			LAEL			LAOL			LWTS			LWPS			LFRA			LIFD			LHPS			LHTS			RSHO			RUPA			RAEL			RAOL			RWTS			RWPS			RFRA			RIFD			RHTS			RHPS			RBHD			LFHD			RFHD			LBHD			LHIP			RHIP			RASI			LASI			LKNE			LTHI			LANK			LTIP			LTOE			LMT1			LMT5			LHEE			RKNE			RTHI			RANK			RTIP			RTOE			RMT1			RMT5			RHEE			
		X1	Y1	Z1	X2	Y2	Z2	X3	Y3	Z3	X4	Y4	Z4	X5	Y5	Z5	X6	Y6	Z6	X7	Y7	Z7	X8	Y8	Z8	X9	Y9	Z9	X10	Y10	Z10	X11	Y11	Z11	X12	Y12	Z12	X13	Y13	Z13	X14	Y14	Z14	X15	Y15	Z15	X16	Y16	Z16	X17	Y17	Z17	X18	Y18	Z18	X19	Y19	Z19	X20	Y20	Z20	X21	Y21	Z21	X22	Y22	Z22	X23	Y23	Z23	X24	Y24	Z24	X25	Y25	Z25	X26	Y26	Z26	X27	Y27	Z27	X28	Y28	Z28	X29	Y29	Z29	X30	Y30	Z30	X31	Y31	Z31	X32	Y32	Z32	X33	Y33	Z33	X34	Y34	Z34	X35	Y35	Z35	X36	Y36	Z36	X37	Y37	Z37	X38	Y38	Z38	X39	Y39	Z39	X40	Y40	Z40	X41	Y41	Z41	X42	Y42	Z42	X43	Y43	Z43	X44	Y44	Z44	X45	Y45	Z45	X46	Y46	Z46	X47	Y47	Z47	X48	Y48	Z48	X49	Y49	Z49	X50	Y50	Z50	X51	Y51	Z51	X52	Y52	Z52	X53	Y53	Z53	

65	0.64	-1283.425659179688	967.8952026367188	-461.6007385253906	-1306.12646484375	966.7534790039062	-601.5108642578125	-1278.061645507812	1050.292846679688	-519.8046875	-1029.131713867188	1258.208251953125	-585.4832153320312	-1303.428955078125	1174.02001953125	-519.4407348632812	-1249.0517578125	1445.459838867188	-519.779541015625	-1070.139770507812	1369.745849609375	-580.0481567382812	-1283.382934570312	1322.992553710938	-415.0462036132812	-1305.126098632812	1396.780151367188	-607.3997802734375	-1228.880981445312	1425.630493164062	-711.485595703125	-1257.307006835938	1304.971923828125	-804.0531616210938	-1233.996948242188	1088.413696289062	-838.7650756835938	-1293.67529296875	1072.94677734375	-755.7191162109375	-1138.904174804688	889.1915893554688	-814.0947875976562	-1197.076538085938	872.2171020507812	-857.42822265625	-1212.808471679688	1001.294921875	-852.2233276367188	-1129.411254882812	720.5485229492188	-825.28173828125	-1187.396240234375	796.757568359375	-861.8681640625	-1121.759521484375	804.3579711914062	-830.5640258789062	-1144.746826171875	1419.084838867188	-380.5784606933594	-1144.296752929688	1357.366088867188	-303.4228515625	-1112.849731445312	1071.7197265625	-250.4820098876953	-1172.354248046875	1053.551025390625	-276.3212585449219	-1021.583068847656	867.999755859375	-321.3635864257812	-1068.854858398438	853.4326171875	-247.958984375	-1104.34228515625	1013.076965332031	-242.4757385253906	-1017.721130371094	711.2260131835938	-312.5528564453125	-1003.661560058594	770.070068359375	-313.847900390625	-1053.835571289062	766.8824462890625	-255.2726593017578	-1148.191772460938	1651.802612304688	-460.5827026367188	-1034.053466796875	1655.427124023438	-633.1131591796875	-1016.654479980469	1657.934204101562	-503.7809448242188	-1187.296997070312	1654.147338867188	-633.9766845703125	-1195.178833007812	859.838623046875	-740.2588500976562	-1150.057495117188	860.8399658203125	-342.44873046875	-1056.079956054688	898.716064453125	-422.855712890625	-1084.034912109375	896.6689453125	-678.326416015625	-1206.989868164062	440.6625671386719	-682.0655517578125	-1176.975708007812	590.030517578125	-717.6834106445312	-1305.218383789062	38.38078689575195	-637.9810791015625	-1226.229614257812	292.6966552734375	-684.239501953125	-1062.076416015625	45.41730880737305	-620.1238403320312	-1129.069213867188	52.13246536254883	-575.466796875	-1158.5224609375	45.17459487915039	-685.3825073242188	-1334.212036132812	46.08993911743164	-564.2735595703125	-1138.661743164062	468.4299621582031	-368.0673217773438	-1118.8115234375	725.3360595703125	-329.2132263183594	-1218.0361328125	42.91306304931641	-338.0408325195312	-1145.539672851562	324.5176391601562	-353.9398193359375	-1021.828063964844	48.19254684448242	-439.0057067871094	-1092.003051757812	53.79835510253906	-459.28857421875	-1081.735229492188	47.51439666748047	-351.7078552246094	-1293.686157226562	34.92722320556641	-366.9896240234375	
66	0.65	-1282.104125976562	967.9502563476562	-462.80126953125	-1305.171630859375	966.7433471679688	-602.6522827148438	-1276.826904296875	1050.243774414062	-521.0027465820312	-1028.024658203125	1257.984741210938	-587.5247192382812	-1302.106689453125	1173.969970703125	-520.5409545898438	-1247.564331054688	1445.39404296875	-521.065185546875	-1068.946411132812	1369.501708984375	-581.9586791992188	-1281.62890625	1322.9287109375	-416.2164306640625	-1304.0126953125	1396.719116210938	-608.43505859375	-1228.12255859375	1425.45751953125	-712.8157348632812	-1257.010131835938	1304.759643554688	-805.2091674804688	-1233.904418945312	1088.149780273438	-839.8516235351562	-1293.308227539062	1072.758666992188	-756.5419311523438	-1138.941650390625	888.8340454101562	-815.4468994140625	-1197.3994140625	871.8590087890625	-858.5001220703125	-1212.904174804688	1000.995788574219	-853.3260498046875	-1129.748413085938	720.174072265625	-826.564208984375	-1187.721313476562	796.4222412109375	-863.0015869140625	-1122.153930664062	803.9049682617188	-831.9608154296875	-1142.829345703125	1418.924926757812	-382.256103515625	-1142.249633789062	1357.276123046875	-305.0969543457031	-1111.070922851562	1071.782958984375	-251.7291412353516	-1170.618286132812	1053.551025390625	-277.4190673828125	-1019.830444335938	868.0426025390625	-322.6115112304688	-1066.934448242188	853.5083618164062	-249.1185150146484	-1102.529663085938	1013.138549804688	-243.6781158447266	-1015.80712890625	711.2978515625	-313.6434631347656	-1001.74169921875	770.1705322265625	-314.9651184082031	-1051.876831054688	766.9940795898438	-256.3889770507812	-1146.186767578125	1651.70654296875	-462.3610534667969	-1032.703247070312	1655.021118164062	-635.33447265625	-1014.798889160156	1657.575805664062	-506.0445556640625	-1185.912719726562	1654.002075195312	-635.6183471679688	-1194.677734375	859.6215209960938	-741.70703125	-1148.630615234375	860.74755859375	-343.9317626953125	-1054.543090820312	898.5911254882812	-424.5985107421875	-1083.36083984375	896.4127807617188	-680.0130004882812	-1206.568725585938	440.4748229980469	-682.8002319335938	-1176.629028320312	589.80029296875	-718.7341918945312	-1305.26953125	38.28033065795898	-638.0316772460938	-1225.913330078125	292.5069580078125	-684.6962280273438	-1062.067260742188	45.42489242553711	-620.0005493164062	-1129.089233398438	52.14037704467773	-575.4178466796875	-1158.5107421875	45.17368316650391	-685.3401489257812	-1334.294555664062	46.0973014831543	-564.3372192382812	-1137.64208984375	468.2720947265625	-368.8953552246094	-1117.208251953125	725.1705932617188	-331.330078125	-1218.042724609375	42.88672637939453	-337.9995422363281	-1145.050170898438	324.58251953125	-354.3767395019531	-1021.862731933594	48.20779037475586	-438.9606323242188	-1092.020385742188	53.82214736938477	-459.201416015625	-1081.763916015625	47.45936965942383	-351.5779724121094	-1293.6650390625	34.95046615600586	-366.9664916992188	
67	0.66	-1280.789184570312	967.9717407226562	-464.0506286621094	-1304.2236328125	966.7258911132812	-603.8367919921875	-1275.588256835938	1050.188598632812	-522.255859375	-1026.928833007812	1257.733642578125	-589.6361083984375	-1300.769653320312	1173.919921875	-521.679443359375	-1246.033325195312	1445.312622070312	-522.391357421875	-1067.728393554688	1369.2392578125	-583.9248046875	-1279.832641601562	1322.85302734375	-417.4227600097656	-1302.870239257812	1396.664428710938	-609.5069580078125	-1227.34228515625	1425.286376953125	-714.1849365234375	-1256.696044921875	1304.555908203125	-806.3963012695312	-1233.797119140625	1087.897705078125	-840.9696655273438	-1292.920776367188	1072.571411132812	-757.3943481445312	-1138.941772460938	888.4888916015625	-816.8175048828125	-1197.68017578125	871.51806640625	-859.5906982421875	-1212.994873046875	1000.703735351562	-854.4566650390625	-1130.02734375	719.8197021484375	-827.85107421875	-1187.988403320312	796.0479125976562	-864.1427612304688	-1122.526000976562	803.4360961914062	-833.36962890625	-1140.85888671875	1418.742553710938	-383.9774475097656	-1140.154418945312	1357.156982421875	-306.8221435546875	-1109.251342773438	1071.822387695312	-253.0061950683594	-1168.839721679688	1053.523315429688	-278.5554809570312	-1018.026245117188	868.068603515625	-323.8804321289062	-1064.975708007812	853.570068359375	-250.3067779541016	-1100.67919921875	1013.183776855469	-244.9113159179688	-1013.8349609375	711.3597412109375	-314.7673645019531	-999.7737426757812	770.2516479492188	-316.1122741699219	-1049.869506835938	767.0823974609375	-257.5419921875	-1144.139892578125	1651.597778320312	-464.172607421875	-1031.304565429688	1654.591918945312	-637.5809326171875	-1012.884460449219	1657.168212890625	-508.3291931152344	-1184.477905273438	1653.86181640625	-637.2896118164062	-1194.198364257812	859.4034423828125	-743.2037353515625	-1147.168579101562	860.6162109375	-345.4718017578125	-1053.0166015625	898.4369506835938	-426.4189453125	-1082.717529296875	896.155029296875	-681.7672119140625	-1206.152587890625	440.2652282714844	-683.5734252929688	-1176.283447265625	589.5535888671875	-719.8169555664062	-1305.304565429688	38.15932846069336	-638.089111328125	-1225.60546875	292.3013000488281	-685.1729125976562	-1062.069702148438	45.42551422119141	-619.867431640625	-1129.115966796875	52.15401458740234	-575.34375	-1158.498046875	45.17237854003906	-685.29052734375	-1334.387451171875	46.10823059082031	-564.401123046875	-1136.299438476562	468.0401000976562	-369.8519897460938	-1115.614624023438	724.9762573242188	-333.5250854492188	-1218.039794921875	42.84940719604492	-337.9578552246094	-1144.346923828125	324.6132202148438	-354.9105834960938	-1021.890869140625	48.21399688720703	-438.9226379394531	-1092.034545898438	53.85055541992188	-459.1104125976562	-1081.784545898438	47.39605331420898	-351.44580078125	-1293.633544921875	34.98146438598633	-366.9557495117188	
68	0.67	-1279.492797851562	967.94677734375	-465.346435546875	-1303.290649414062	966.6951904296875	-605.0628662109375	-1274.357788085938	1050.126342773438	-523.5637817382812	-1025.836059570312	1257.451416015625	-591.8096923828125	-1299.42236328125	1173.8720703125	-522.8553466796875	-1244.4609375	1445.214965820312	-523.7593994140625	-1066.486572265625	1368.953979492188	-585.9439697265625	-1277.997314453125	1322.767333984375	-418.6654663085938	-1301.697509765625	1396.6142578125	-610.61865234375	-1226.53515625	1425.118896484375	-715.5939331054688	-1256.365600585938	1304.361450195312	-807.619384765625	-1233.676025390625	1087.65771484375	-842.1222534179688	-1292.5126953125	1072.390502929688	-758.2822265625	-1138.902099609375	888.1517333984375	-818.2045288085938	-1197.913208007812	871.1913452148438	-860.69921875	-1213.074340820312	1000.420166015625	-855.6160278320312	-1130.248901367188	719.4683837890625	-829.1362915039062	-1188.190673828125	795.6373291015625	-865.2877807617188	-1122.861694335938	802.9631958007812	-834.7830200195312	-1138.838745117188	1418.535278320312	-385.7441711425781	-1138.010131835938	1357.006958007812	-308.5982971191406	-1107.393432617188	1071.837890625	-254.3119506835938	-1167.016723632812	1053.466674804688	-279.734130859375	-1016.161193847656	868.0785522460938	-325.1657104492188	-1062.97802734375	853.6158447265625	-251.5175018310547	-1098.790893554688	1013.210754394531	-246.1739959716797	-1011.80712890625	711.4071044921875	-315.9231567382812	-997.7731323242188	770.3040771484375	-317.2980041503906	-1047.812866210938	767.1427001953125	-258.7250366210938	-1142.043090820312	1651.46533203125	-466.012939453125	-1029.852294921875	1654.136596679688	-639.84765625	-1010.908752441406	1656.714599609375	-510.6340026855469	-1182.98681640625	1653.720458984375	-638.9861450195312	-1193.73779296875	859.188232421875	-744.7440185546875	-1145.679565429688	860.43408203125	-347.0690612792969	-1051.53515625	898.242431640625	-428.3192443847656	-1082.112060546875	895.8857421875	-683.5828857421875	-1205.733520507812	440.0393371582031	-684.3836669921875	-1175.940795898438	589.292236328125	-720.9354248046875	-1305.326171875	38.01949310302734	-638.1549072265625	-1225.303955078125	292.0694580078125	-685.6700439453125	-1062.0869140625	45.41677474975586	-619.7220458984375	-1129.137817382812	52.17977142333984	-575.2406005859375	-1158.48388671875	45.17087936401367	-685.2327880859375	-1334.489990234375	46.12182998657227	-564.4677734375	-1134.565795898438	467.7265014648438	-370.9548645019531	-1114.066040039062	724.7418212890625	-335.80078125	-1218.019897460938	42.79779815673828	-337.9171752929688	-1143.37109375	324.5960388183594	-355.5660095214844	-1021.910705566406	48.20849990844727	-438.8904418945312	-1092.042602539062	53.88273239135742	-459.0160217285156	-1081.790161132812	47.32387161254883	-351.3126831054688	-1293.590698242188	35.03227233886719	-366.9581604003906	
